<svg xmlns="http://www.w3.org/2000/svg" xmlns:xlink="http://www.w3.org/1999/xlink" version="1.1" width="772" height="450" style="" xml:space="preserve"><rect id="backgroundrect" width="100%" height="100%" x="0" y="0" fill="none" stroke="none"/>



















































<g class="currentLayer" style=""><title>Layer 1</title><path d="M448.4,382.8c2,0.1,5.2,0.2,7.7,0.2c2.6,0,5.7-0.2,8.2-0.2v1.1h-0.5c-1.9,0-4.2,0.4-4.2,3.3v28.3c0,3,2.3,3.3,4.2,3.3h0.5  v1.1c-2.6,0-5.7-0.2-8.3-0.2c-2.6,0-5.6,0.2-7.7,0.2v-1.1h0.5c1.9,0,4.2-0.4,4.2-3.3v-28.3c0-3-2.3-3.3-4.2-3.3h-0.5L448.4,382.8  L448.4,382.8z" id="svg_5"/><g id="svg_6">
	<path d="M412.6,418.4c-1.7,0-2.7-0.6-3.3-2c-0.7-1.6-1.4-3.6-2-5.5l-9.9-28.2c-0.1-0.5-0.3-1-0.5-1.4c-0.2-0.2-0.5-0.3-0.6-0.3   c-0.2,0-0.4,0.1-0.5,0.1c-1,0.6-3.2,1.7-4.9,2.3c-0.4,2.1-1.4,4.9-2.1,6.8L380,415c-0.8,2.2-2.5,3.3-4.4,3.3H375v2.1h0.3   c1.9-0.1,3.9-0.2,5.8-0.2c2.2,0,4.4,0.1,6.5,0.2h0.3v-2.1H387c-1.8,0-3.8-0.3-3.8-1.7c0-0.8,0.6-2.3,1.2-4.1l1.7-5.5H398l2.1,6.1   c0.6,1.7,1.1,3.2,1,3.8c0,1-1.8,1.3-3.1,1.3h-0.8v2.1l0.2-0.1c2.8-0.1,5.5-0.2,8.1-0.2s5.1,0.2,7.4,0.2l0.2,0.1v-2.1h-0.5V418.4z    M386.9,403.9l5-15.3h0.2l4.9,15.3H386.9z" id="svg_7"/>
</g><path d="M445.1,381.2l0.8,0.1c-0.2,1.4-0.4,2.8-0.5,4.2c-0.2,1.4-0.2,2.9-0.2,4.2l-1.1,0.5c-0.1-2-0.6-5.1-4.2-5.1h-9.1v29  c0,4.2,2.1,4.8,4.7,4.8h0.8v1.1c-2.1,0-5.7-0.2-8.5-0.2c-3.1,0-6.8,0.2-8.9,0.2v-1.1h0.8c3-0.1,4.7-0.5,4.7-4.8V385h-9.1  c-4-0.1-4.5,1.1-5.2,4.9H409c0.2-1.4,0.5-2.8,0.6-4.3c0.2-1.4,0.3-2.9,0.3-4.4h0.9c0.5,1.5,1.9,1.6,3.1,1.6H442  C443.3,382.8,444.8,382.7,445.1,381.2L445.1,381.2z" id="svg_8"/><path d="M474.4,362.4c-23.2,0-37.9-14.9-37.9-37.3c0-20.3,18.1-34.9,37.6-34.9c8,0,15.8,2.6,23.4,5.3l0.9,14.2H496  c-1.9-11.6-10.1-16.3-21.2-16.3c-11.4,0-28,7.7-28,31.5c0,20.1,14.3,34.4,29.6,34.4c9.8,0,17.9-6.8,19.9-17.2l2.3,0.6l-2.3,14.4  C492.2,359.8,481,362.4,474.4,362.4L474.4,362.4z" id="svg_9"/><path d="M375.7,384.4v-2h-0.2c-2.2,0-4.4,0.2-6.7,0.2c-2.5,0-5-0.2-7.6-0.2H361v2h1.4c1.6,0.1,4.4,0.6,4.5,4.9v19.8l-23.8-26.7  c-1.8-0.1-3.4,0.1-4.9,0.1c-2,0-4.1-0.2-6.2-0.2h-0.3v2.1h1c2.3,0,4.7,1.8,4.7,4.6v22.7c-0.1,4.3-1,6.6-4.6,6.6h-1v2.1h0.3  c2.4,0,4.9-0.2,7.3-0.2c2.3,0,4.6,0.2,6.9,0.2h0.3v-2.1h-1.1c-4.1-0.1-4.8-1.3-4.9-6v-21.6l27.4,30.5l2.2,0.1h0.3v-0.2  c-0.3-1.7-0.4-3.5-0.4-5.5v-24.5c0.1-6.4,2.4-6.6,4.6-6.6L375.7,384.4L375.7,384.4L375.7,384.4z" id="svg_10"/><path d="M369.8,391v24.6c0,1.9,0.1,3.8,0.3,5.5h-2l-27.8-31v22.2c0,4.7,0.9,6.3,5.1,6.3h0.9v1.6c-2.3,0-4.6-0.2-6.9-0.2  c-2.5,0-4.9,0.2-7.3,0.2v-1.6h0.7c3.7,0,4.8-2.6,4.8-6.8V389c0-3-2.4-4.8-4.9-4.8H332v-1.6c2,0,4.2,0.2,6.2,0.2  c1.6,0,3.2-0.2,4.8-0.2l24,27h0.1v-0.1h0.1v-20.2c0-4.4-3.1-5.1-4.7-5.1h-1.2v-1.6c2.6,0,5.1,0.2,7.6,0.2c2.2,0,4.4-0.2,6.7-0.2v1.6  h-0.8C372.4,384.2,369.8,384.6,369.8,391L369.8,391z" id="svg_11"/><path d="M444.6,380.6v0.3c-0.1,1.4-1.1,1.5-2.7,1.5h-28.1c-1.4,0-2.3-0.1-2.7-1.4l-0.1-0.2h-1.7v0.2c0,1.6-0.1,3.1-0.3,4.6  c-0.2,1.6-0.5,3.1-0.7,4.6v0.3h2.1v-0.2c0.9-4,0.8-4.7,4.8-4.7h8.6v28.6c-0.1,4.2-1.2,4.2-4.2,4.3h-1.3v2.1h0.3  c2.1,0,5.9-0.2,9.1-0.2c2.9,0,6.7,0.2,8.8,0.2h0.2v-2.1h-1.3c-2.6-0.1-4.2-0.3-4.2-4.4v-28.4h8.6c3.4,0,3.6,2.9,3.8,5v0.3l1.9-0.7  l0.2-0.1v-0.1c0-1.5,0-2.9,0.1-4.4c0.2-1.5,0.4-2.9,0.6-4.3l0.1-0.2l-1.6-0.2L444.6,380.6z" id="svg_12"/><path d="M445.6,385.5c-0.1,1.5-0.1,2.9-0.1,4.4l-1.6,0.6c-0.1-2-0.4-5.2-4-5.2H431V414c0,4.2,1.9,4.6,4.5,4.6h1v1.6  c-2.1,0-5.9-0.2-8.8-0.2c-3.2,0-7,0.2-9.1,0.2v-1.6h1c3,0,4.5-0.3,4.5-4.5v-28.8h-8.9c-4.1,0-4.2,1-5.1,4.9h-1.6  c0.2-1.5,0.5-3,0.7-4.6c0.2-1.5,0.3-3,0.3-4.6h1.3c0.4,1.6,1.8,1.5,3.2,1.5h28c1.5,0,2.8-0.1,2.9-1.6l1.3,0.2  C445.9,382.6,445.8,384,445.6,385.5L445.6,385.5z" id="svg_13"/><g id="svg_14">
	<path d="M325,415.5l-9.4-14l0.3-0.1c4.2-1.7,7.4-4.6,7.4-9.3c0-7.5-5.8-9.2-12.7-9.3c-2.8,0-5.4,0.3-8.6,0.3s-6.4-0.2-8.1-0.3v1.1   h0.7c1.7,0,4.1,0.3,4.1,4.4v27.4c0,2.2-2,3.2-4.1,3.2h-0.7v1.1c2.5,0,5.1-0.2,7.5-0.2c3,0,6.1,0.2,9.1,0.2v-1.1h-0.7   c-2.5,0-4.7-0.3-4.7-4.6v-11.8h4l0.1,0.1c3.5,6.2,7.1,12,11,17.4c1.6,0,3.3-0.2,5.1-0.2c1.7,0,3.4,0.2,5.1,0.2v-1.2   C327.7,418.5,326.5,417.7,325,415.5z M307.9,400.5h-2.4v-15.6c0.7-0.1,1.3-0.2,2.8-0.2c4.7,0.1,7.7,3,7.7,7.7   C315.9,398.7,313.2,400.5,307.9,400.5z" id="svg_15"/>
</g><path d="M303.7,360.9c-3.5,0-6.9-0.2-10.5-0.2c-3.5,0-7.1,0.1-10.7,0.2v-2.6h1.8c2.8,0,4.7,0,4.7-3.3v-25.7c0-5.7-3.4-8.4-9.1-8.4  c-3.2,0-8.2,2.6-11.5,4.7V355c0,3.3,2.2,3.3,5,3.3h1.8v2.6c-3.5,0-6.9-0.2-10.5-0.2c-3.5,0-7.1,0.1-10.7,0.2v-2.6h1.8  c2.8,0,4.7,0,4.7-3.3v-26.3c0-3.7-1.1-4.6-5.7-6.5v-1.9c4.2-1.4,8.3-2.7,13.1-4.8c0.3,0,0.6,0.2,0.6,1v6.4  c5.7-4.1,10.5-7.4,17.2-7.4c8.4,0,11.4,6.1,11.4,13.9V355c0,3.3,2.1,3.3,4.9,3.3h1.8L303.7,360.9L303.7,360.9z" id="svg_16"/><path d="M289.4,411l-0.1,0.2c-1.7,6-4.3,6.4-10.7,6.4c-3.5,0-6.4,0-6.4-3.3V402h6.2c3.6,0.1,3.7,1.8,4,5.1v0.2l1.9-0.4l0.2-0.1v-0.2  c-0.1-2.1-0.1-4.1-0.1-6.2s0-4.2,0.1-6.3v-0.2h-2.1v0.2c-0.4,2.9-0.9,4.5-4.1,4.5h-6.1V385h7.2c5.6,0.1,6,2.6,6.4,6.1v0.3l1.9-0.5  l0.2-0.1v-0.2c-0.1-1.5-0.2-3.5-0.2-5.4c0-1,0-2,0.1-2.8v-0.2h-0.3c-3.7,0-9.2,0.2-13.8,0.2c-4.5,0-10.1-0.2-13.4-0.2H260v2.1h1  c2,0,3.8,0.2,3.8,2.9v28.2c0,2.7-1.8,2.8-3.8,2.9h-1v2.1h0.3c3.1,0,9.5-0.2,14.3-0.2s11,0.2,14.5,0.2h0.2v-0.2  c0.5-2.9,1.1-5.7,1.8-8.5l0.1-0.3l-1.7-0.4H289.4L289.4,411z" id="svg_17"/><path d="M289.3,420.2c-3.5,0-9.7-0.2-14.5-0.2s-11.3,0.2-14.3,0.2v-1.6h0.7c2,0,4-0.3,4-3.1v-28.3c0-2.8-2-3.1-4-3.1h-0.7v-1.6  c3.3,0,8.9,0.2,13.4,0.2s10.1-0.2,13.7-0.2c-0.1,2.3,0,5.9,0.2,8.2l-1.7,0.5c-0.3-3.5-0.9-6.3-6.6-6.3H272v14.2h6.5  c3.2,0,3.9-1.8,4.2-4.8h1.6c-0.1,2.1-0.2,4.2-0.2,6.3c0,2,0.1,4.1,0.2,6.1l-1.6,0.3c-0.3-3.2-0.5-5.3-4.2-5.3H272v12.6  c0,3.5,3.1,3.5,6.6,3.5c6.5,0,9.3-0.4,10.9-6.6l1.5,0.4C290.4,414.5,289.7,417.4,289.3,420.2L289.3,420.2z" id="svg_18"/><path d="M368.8,383c2.1,0,4.3-0.2,6.4-0.2v1.1h-0.6c-2.3,0-5,0.6-5,7.1v24.6c0,1.8,0,3.5,0.3,5.2h-1.8l-28-31.4v22.8  c0,4.8,1,6.6,5.3,6.6h0.7v1.1c-2.2,0-4.5-0.2-6.7-0.2c-2.4,0-4.8,0.2-7.1,0.2v-1.1h0.5c3.9-0.1,5.1-2.8,5.1-7.1V389  c0-3.2-2.6-5.1-5.1-5.1h-0.5v-1.1c2,0.1,4,0.2,6,0.2c1.6,0,3.2-0.2,4.8-0.2l24,27.1l0.2-0.2l0.1-0.1l0.1-20.4c0-4.6-3.3-5.3-5-5.3  h-0.9v-1.1C364,382.8,366.4,383,368.8,383L368.8,383z" id="svg_19"/><path d="M366.9,409.5L366.9,409.5L366.9,409.5z" id="svg_20"/><path d="M456.1,382.5c-2.6,0-5.9-0.2-8-0.2h-0.3v2.1h1c1.9,0,3.7,0.2,3.7,2.9v28.3c-0.1,2.6-1.8,2.8-3.7,2.8h-1v2.1h0.3  c2.1,0,5.3-0.2,8-0.2s5.9,0.2,8.5,0.2h0.2v-2.1h-1c-1.9,0-3.7-0.2-3.8-2.9v-28.2c0-2.7,1.8-2.9,3.8-2.9h1v-2.1h-0.2  C462.1,382.3,458.9,382.5,456.1,382.5L456.1,382.5z" id="svg_21"/><path d="M464.6,384.2h-0.8c-1.9,0-4,0.3-4,3.1v28.3c0,2.8,2,3.1,4,3.1h0.8v1.6c-2.6,0-5.8-0.2-8.5-0.2c-2.6,0-5.8,0.2-7.9,0.2v-1.6  h0.7c2,0,4-0.3,4-3.1v-28.3c0-2.8-2-3.1-4-3.1h-0.7v-1.6c2.1,0,5.3,0.2,8,0.2s6-0.2,8.5-0.2v1.6H464.6z" id="svg_22"/><path d="M618.3,415.1c0.8-1.2,1.4-2.7,1.7-3.9h1.1c-0.6,2.9-1.3,5.8-1.9,8.8c-4.6,0-9.3-0.2-14-0.2s-9.3,0.2-14,0.2v-1.1h0.5  c1.9,0,4.3-0.4,4.3-3.9v-27.8c0-3-2.4-3.3-4.3-3.3h-0.5v-1.1c2.8,0.1,5.5,0.3,8.3,0.3c2.7,0,5.3-0.2,8-0.3v1.1h-1.1  c-2,0-4,0.2-4,3.2v27.8c0,2.3,1.7,3.1,3.5,3.3c1,0.1,2,0.1,3,0.1c1.3,0,2.7,0,4.2-0.2C615.3,417.8,617.3,416.5,618.3,415.1  L618.3,415.1z" id="svg_23"/><path d="M619.6,410.8l-0.1,0.2c-0.3,1.1-0.8,2.7-1.6,3.8c-0.9,1.3-2.8,2.5-5,2.8c-1.4,0.1-2.8,0.2-4.1,0.2c-1,0-2,0-3-0.1  c-1.7-0.2-3-0.7-3-2.8V387c0.1-2.7,1.4-2.6,3.4-2.7h1.6v-2.1h-0.2c-2.8,0-5.5,0.2-8.2,0.2c-2.9,0-5.7-0.2-8.5-0.2h-0.2v2h1  c2,0.1,3.8,0.3,3.8,2.9V415c0,3.2-1.9,3.3-3.8,3.3h-1v2.1h0.2c4.7,0,9.5-0.2,14.3-0.2c4.7,0,9.5,0.2,14.2,0.2h0.2l0.1-0.2  c0.6-3.1,1.4-6.1,2-9.2l0.1-0.3L619.6,410.8L619.6,410.8L619.6,410.8z" id="svg_24"/><path d="M619.4,420.2c-4.7,0-9.5-0.2-14.2-0.2s-9.5,0.2-14.3,0.2v-1.6h0.7c2,0,4.1-0.3,4.1-3.6v-27.7c0-2.9-2.1-3.1-4.1-3.1h-0.7  v-1.6c2.9,0,5.7,0.2,8.5,0.2s5.5-0.2,8.2-0.2v1.6h-1.4c-2,0-3.7,0.1-3.7,2.9v27.8c0,2.2,1.5,2.8,3.2,3c2.2,0.2,4.7,0.2,7.1-0.1  c2.3-0.2,4.2-1.6,5.2-2.9c0.9-1.1,1.4-2.7,1.7-3.9h1.6C620.8,414.1,620.1,417.2,619.4,420.2L619.4,420.2z" id="svg_25"/><path d="M620.7,381.1c-3.2,0-5.7,2.5-5.7,5.7s2.4,5.6,5.7,5.6c3.2,0,5.7-2.4,5.7-5.6S624,381.1,620.7,381.1L620.7,381.1z" id="svg_26"/><path d="M620.7,391.3c-2.6,0-4.5-2.2-4.5-4.6s2-4.6,4.5-4.6c2.6,0,4.5,2.1,4.5,4.6C625.2,389.1,623.3,391.3,620.7,391.3L620.7,391.3  z" id="svg_27"/><path d="M621.4,386.9c0.8-0.2,1.4-0.9,1.4-1.7c0-1-0.9-1.5-1.9-1.5H618v0.3c0.7-0.1,0.8,0.2,0.8,0.7v4.2c0,0.4-0.2,0.4-0.8,0.5v0.3  h2.8v-0.3c-0.7-0.1-0.9-0.1-0.9-0.5V387h0.7c1,1.5,1.5,2.6,2,2.6h1.1v-0.2c-0.3-0.2-0.8-0.8-1.2-1.3L621.4,386.9z" id="svg_28"/><path d="M620.5,386.7h-0.7V384h0.7c0.6,0,1.1,0.4,1.1,1.2C621.6,386.2,621.2,386.7,620.5,386.7L620.5,386.7z" id="svg_29"/><g id="svg_30">
	<path d="M486.1,382c-11.1,0-19.7,8.6-19.7,19.7c0,11.5,8.6,19.1,19.9,19.1c11.4,0,20.2-8.2,20.2-20.4   C506.6,389,497.6,382,486.1,382z M486.9,418.7c-8.7,0-13.1-9.2-13.1-18.9c0-7.2,2.8-15.6,12.2-15.6c9,0,13.3,9.5,13.2,17.5   C499.2,409.4,497.4,418.7,486.9,418.7z" id="svg_31"/>
	<path d="M486,384.1c-9.4,0-12.2,8.5-12.2,15.6c0,9.7,4.4,18.9,13.1,18.9c10.5,0,12.3-9.2,12.3-17.1   C499.3,393.7,495,384.1,486,384.1z M486.9,418.4c-8.5,0-12.9-9-12.9-18.6c0.1-7.2,2.8-15.4,12-15.4c8.8,0,13,9.4,13,17.2   C499,409.4,497.2,418.4,486.9,418.4z" id="svg_32"/>
</g><path d="M545,383c2.1,0,4.3-0.2,6.4-0.2v1.1h-0.6c-2.3,0-5,0.6-5,7.1v24.6c0,1.8,0,3.5,0.2,5.2h-1.8l-28-31.4v22.9  c0,4.7,1.1,6.5,5.3,6.6h0.7v1.1c-2.2,0-4.5-0.2-6.8-0.2s-4.7,0.2-7.1,0.2v-1.1h0.5c3.9-0.1,5.1-2.8,5.1-7.1V389  c0-3.2-2.6-5.1-5.2-5.1h-0.5v-1.1c2,0.1,4,0.2,6,0.2c1.6,0,3.2-0.2,4.8-0.2l24,27.1l0.2-0.2l0.1-0.1l0.1-20.4c0-4.6-3.3-5.3-4.9-5.3  h-1v-1.1C540.1,382.8,542.4,383,545,383L545,383z" id="svg_33"/><path d="M551.8,384.4v-2h-0.2c-2.2,0-4.5,0.2-6.7,0.2c-2.5,0-5-0.2-7.6-0.2H537v2h1.5c1.6,0.1,4.4,0.6,4.5,4.9v19.8l-23.8-26.7  c-1.8-0.1-3.3,0.1-5,0.1c-2,0-4.1-0.2-6.2-0.2h-0.2v2h0.9c2.3,0,4.6,1.8,4.6,4.6v22.8c0,4.3-1,6.6-4.6,6.6h-1v2.1h0.2  c2.4,0,4.9-0.2,7.3-0.2c2.3,0,4.6,0.2,6.9,0.2h0.3v-2.1h-1.1c-4.1-0.1-4.8-1.3-4.8-6v-21.6l27.3,30.5l2.2,0.1h0.3l-0.1-0.2  c-0.3-1.6-0.3-3.6-0.3-5.4v-24.5c0-6.4,2.3-6.6,4.5-6.7L551.8,384.4L551.8,384.4z" id="svg_34"/><path d="M546,391v24.6c0,1.9,0,3.8,0.3,5.5h-2.1l-27.8-31v22.2c0,4.7,0.9,6.3,5.1,6.3h0.9v1.6c-2.3,0-4.6-0.2-6.9-0.2  c-2.4,0-4.9,0.2-7.3,0.2v-1.6h0.7c3.8,0,4.8-2.5,4.8-6.8V389c0-3-2.4-4.8-4.9-4.8h-0.7v-1.6c2,0,4.2,0.2,6.2,0.2  c1.6,0,3.2-0.2,4.8-0.2l24,27l0.1-0.1v-20.2c0-4.5-3-5.1-4.7-5.1h-1.1v-1.6c2.6,0,5,0.2,7.6,0.2c2.2,0,4.4-0.2,6.6-0.2v1.6h-0.8  C548.5,384.2,546,384.6,546,391L546,391z" id="svg_35"/><path d="M543,409.5L543,409.5L543,409.5z" id="svg_36"/><path d="M257.1,380.6v0.3c-0.1,1.4-1.2,1.5-2.7,1.5h-28.1c-1.4,0-2.4-0.1-2.8-1.4v-0.2h-1.7v0.2c0,1.6-0.1,3.1-0.4,4.6  c-0.2,1.6-0.4,3.1-0.6,4.6v0.3h2l0.1-0.2c0.9-4,0.8-4.7,4.8-4.7h8.6v28.6c-0.1,4.2-1.3,4.2-4.2,4.3h-1.3v2.1h0.2  c2.1,0,5.9-0.2,9.1-0.2c2.9,0,6.7,0.2,8.8,0.2h0.3v-2.1H248c-2.5-0.1-4.2-0.3-4.2-4.4v-28.4h8.6c3.4,0,3.7,2.9,3.8,5v0.3l1.9-0.7  l0.2-0.1v-0.1c0-1.5,0-2.9,0.1-4.4s0.4-2.9,0.6-4.3v-0.2l-1.5-0.2L257.1,380.6z" id="svg_37"/><path d="M258.1,385.5c-0.1,1.5-0.1,2.9-0.1,4.4l-1.6,0.6c-0.2-2-0.4-5.2-4-5.2h-8.8V414c0,4.2,1.9,4.6,4.5,4.6h1v1.6  c-2.1,0-5.9-0.2-8.8-0.2c-3.2,0-7,0.2-9.1,0.2v-1.6h1c3,0,4.5-0.3,4.5-4.5v-28.8h-8.9c-4.1,0-4.2,1-5.1,4.9h-1.6  c0.3-1.5,0.5-3,0.7-4.6c0.2-1.5,0.3-3,0.3-4.6h1.3c0.4,1.6,1.8,1.5,3.2,1.5h27.9c1.5,0,2.8-0.1,2.9-1.6l1.3,0.2  C258.4,382.6,258.2,384,258.1,385.5L258.1,385.5z" id="svg_38"/><polygon points="211.1,409.5 211.1,409.4 211.1,409.4 " id="svg_39"/><path d="M357.8,331.8v23.3c0,3.3,2,3.3,4.7,3.3h5.6v2.6c-5.5-0.1-9.6-0.2-13.9-0.2c-4.1,0-8.2,0.1-11.8,0.2v-2.6h2.6  c2.8,0,4.7,0,4.7-3.3v-27.9c0-3.1-3.7-3.6-5.2-4.4v-1.5c7.2-3.1,11.2-5.6,12.1-5.6c0.6,0,0.9,0.3,0.9,1.3v9h0.2  c2.5-3.8,6.7-10.2,12.7-10.2c2.5,0,5.7,1.7,5.7,5.3c0,2.6-1.9,5.1-4.6,5.1c-3.1,0-3.1-2.4-6.6-2.4  C363.3,323.6,357.8,325.8,357.8,331.8L357.8,331.8z" id="svg_40"/><path d="M401,352.2c0-11.7-21.6-7.9-21.6-23.9c0-5.5,4.5-12.7,15.4-12.7c3.2,0,7.4,0.9,11.3,2.9l0.7,10.1h-2.3  c-1-6.3-4.4-9.8-10.8-9.8c-4,0-7.7,2.3-7.7,6.5c0,11.6,23,8,23,23.6c0,6.6-5.2,13.5-17.1,13.5c-4,0-8.6-1.4-12.1-3.4l-1.1-11.4  l1.8-0.5c1.3,6.6,5.3,12.1,12.5,12.1C398.9,359.3,401,355.7,401,352.2L401,352.2z" id="svg_41"/><path d="M165.7,382.5c-2.7,0-5.9-0.2-8-0.2h-0.2v2.1h1c1.9,0,3.7,0.2,3.7,2.9v28.3c0,2.6-1.8,2.8-3.7,2.8h-1v2.1h0.2  c2.1,0,5.3-0.2,8-0.2s5.9,0.2,8.5,0.2h0.3v-2.1h-1c-2-0.1-3.7-0.2-3.7-2.9v-28.2c0-2.7,1.8-2.9,3.7-2.9h1v-2.1h-0.3  C171.6,382.3,168.4,382.5,165.7,382.5L165.7,382.5z" id="svg_42"/><path d="M174.2,384.2h-0.7c-2,0-4,0.3-4,3.1v28.3c0,2.8,2,3.1,4,3.1h0.7v1.6c-2.6,0-5.8-0.2-8.5-0.2c-2.6,0-5.8,0.2-7.9,0.2v-1.6  h0.8c1.9,0,4-0.3,4-3.1v-28.3c0-2.8-2-3.1-4-3.1h-0.8v-1.6c2.1,0,5.4,0.2,8,0.2s5.9-0.2,8.4-0.2V384.2L174.2,384.2z" id="svg_43"/><path d="M213,383c2.1,0,4.3-0.2,6.4-0.2v1.1h-0.6c-2.4,0-5.1,0.6-5.1,7.1v24.6c0,1.8,0.1,3.5,0.3,5.2h-1.8l-28-31.4v22.9  c0,4.7,1,6.5,5.3,6.6h0.7v1.1c-2.2-0.1-4.5-0.2-6.7-0.2c-2.4,0-4.8,0.2-7.1,0.2v-1.2l0.5,0.1c3.9-0.1,5.1-2.8,5.1-7.1V389  c0-3.2-2.6-5.1-5.1-5.1h-0.5v-1.1c2,0.1,4,0.2,5.9,0.2c1.7,0,3.2-0.2,4.8-0.2l24,27.1l0.3-0.3l0.1-20.4c0-4.6-3.3-5.3-4.9-5.3h-0.9  v-1.1C208.1,382.8,210.5,383,213,383L213,383z" id="svg_44"/><path d="M165.7,383c2.6,0,5.7-0.2,8.2-0.2v1.1h-0.5c-1.9,0-4.3,0.4-4.3,3.3v28.3c0,3,2.3,3.3,4.3,3.3h0.5v1.1  c-2.5-0.1-5.7-0.2-8.3-0.2c-2.5,0-5.6,0.2-7.6,0.2v-1.1h0.5c1.9,0,4.2-0.4,4.2-3.3v-28.3c0-3-2.3-3.3-4.2-3.3H158v-1.1  C160,382.8,163.2,383,165.7,383L165.7,383z" id="svg_45"/><g id="svg_46">
	<path d="M339.2,349.8c-3.6,3.6-7.9,6.7-13.4,6.7c-7.9,0-14-7.8-14.5-17.2c-0.2-3.3-0.2-4.9,0-5.7h27.9l0,0l0.9-0.6   c0-0.6,0-1.2,0-1.8c0-10.5-8.7-15.6-16.7-15.6c-7,0-20.1,5.8-20.1,25.2c0,6.4,3.2,21.6,18.9,21.6c8.1,0,13.8-5.2,18.3-11.2   L339.2,349.8z M322.9,318.8c5.6,0,8.7,4.1,8.7,9.1c0,1.1-0.3,2.5-2.8,2.5h-17.3C312.7,323.3,316.9,318.8,322.9,318.8z" id="svg_47"/>
</g><g id="svg_48">
	<path d="M186.7,291.7c-7.3,0-13,0.2-17.1,0.2c-3.9,0-7.8,0-11.7-0.2v2.6c4.5,0.1,9.1-0.5,9.1,8.4v48.1c-0.3,6.7-3.2,6.9-9.1,7.5   v2.6c4.5-0.1,8.9-0.2,13.3-0.2c4.6,0,9.3,0.2,14.4,0.2c35.1,0,40.8-24.6,40.8-34.5C226.4,308.9,212.3,291.7,186.7,291.7z    M187,357.7c-4.8,0-10.3-0.9-10.3-8.5v-54c1.8-0.1,3.6-0.4,7.8-0.4c19.1,0,31,13.4,31,31.9C215.4,341.6,208.4,357.7,187,357.7z" id="svg_49"/>
</g><path d="M235.6,295.4c0-2.5,2.4-4.8,4.9-4.8c2.6,0,4.9,2.1,4.9,4.8c0,2.6-2.2,5-4.9,5C237.9,300.4,235.6,298,235.6,295.4  L235.6,295.4z" id="svg_50"/><path d="M508.7,355.1v-55.2c0-6.5-1.5-6.7-5.3-7.8v-1.6c4-1.3,8.1-3.1,10.2-4.3c1.1-0.6,1.9-1.1,2.2-1.1c0.6,0,0.8,0.6,0.8,1.4V355  c0,3.3,2.2,3.3,4.9,3.3h1.7v2.6c-3.3,0-6.8-0.2-10.4-0.2c-3.5,0-7.1,0.1-10.8,0.2v-2.6h1.9C506.8,358.4,508.7,358.4,508.7,355.1  L508.7,355.1z" id="svg_51"/><path d="M240.6,360.7c-3.5,0-7.1,0.1-10.8,0.2v-2.6h1.9c2.8,0,4.7,0,4.7-3.3v-26.9c0-4.3-1.5-4.9-5.2-6.9v-1.6  c4.7-1.4,10.2-3.3,10.6-3.6c0.7-0.4,1.3-0.5,1.8-0.5s0.7,0.6,0.7,1.4V355c0,3.3,2.1,3.3,4.9,3.3h1.7v2.6  C247.7,360.9,244.2,360.7,240.6,360.7L240.6,360.7z" id="svg_52"/><g id="svg_53">
	<path d="M600.3,315.6c-5.4,0-10.8,3.8-14.7,7.1v-36.2c0-0.8-0.2-1.4-0.8-1.4c-0.3,0-1.1,0.5-2.2,1.1c-2,1.2-6.2,3-10.2,4.3v1.6   c3.8,1.1,5.3,1.3,5.3,7.8v42.6c0,6-0.5,11.8-1.4,17.7l2,1l3-2.2c2.6,1.1,6.5,3.5,13.8,3.5c14.2,0,23.7-13,23.7-26   C618.7,325.6,611.8,315.6,600.3,315.6z M595.7,359.9c-6.7,0-10.2-6.4-10.2-10.1v-24.1c2.7-2.3,5.7-4.7,9.4-4.7   c7.7,0,15.8,9,15.8,19.6C610.8,349.4,606.4,359.9,595.7,359.9z" id="svg_54"/>
</g><path d="M289.7,411.5l1,0.2c-0.6,2.8-1.3,5.5-1.7,8.2c-3.5,0-9.6-0.2-14.3-0.2s-11,0.2-14.1,0.2v-1.1h0.5c1.9-0.1,4.2-0.4,4.2-3.3  v-28.3c0-3-2.3-3.3-4.2-3.3h-0.5v-1.1c3.3,0.1,8.8,0.3,13.2,0.3s9.9-0.2,13.6-0.3c-0.1,0.8-0.1,1.7-0.1,2.6c0,1.8,0.1,3.7,0.2,5.2  l-1.2,0.3c-0.2-3.4-1.1-6.3-6.8-6.3h-7.7v14.6h6.6c3.3,0.1,4.2-1.9,4.5-4.8h1.2c-0.1,2-0.2,4.1-0.2,6.1s0.1,4,0.2,6l-1.2,0.2  c-0.2-3.1-0.7-5.3-4.4-5.3h-6.7v12.8c0,3.7,3.4,3.7,6.8,3.7C285,418.2,288.1,417.6,289.7,411.5L289.7,411.5z" id="svg_55"/><path d="M537.2,345.5c0,3,0,11.5,8.6,11.5c3.4,0,7.9-2.6,12-6v-26.7c0-2-4.8-3.1-8.3-4.1v-1.8c8.9-0.6,14.5-1.4,15.5-1.4  c0.8,0,0.8,0.7,0.8,1.8v36.6c0,1.8,1.1,1.9,2.8,1.9c1.2,0,2.7-0.1,4-0.1v2.1c-4.3,0.4-12.4,2.4-14.3,3.1l-0.5-0.3v-8  c-6,4.8-10.5,8.3-17.6,8.3c-5.3,0-10.9-3.5-10.9-11.8v-25.4c0-2.6-0.4-5.1-5.9-5.6v-1.9c3.5-0.1,11.5-0.7,12.8-0.7  c1.1,0,1.1,0.7,1.1,2.9L537.2,345.5L537.2,345.5z" id="svg_56"/><path d="M257.6,381.2l0.8,0.1c-0.2,1.4-0.4,2.8-0.6,4.2c0,1.4-0.1,2.9-0.1,4.2l-1.1,0.5c-0.1-2-0.6-5.1-4.2-5.1h-9v29  c0,4.2,2.1,4.8,4.7,4.9h0.8v1.1c-2.1,0-5.7-0.2-8.5-0.2c-3.1,0-6.8,0.2-8.9,0.2V419h0.8c3-0.1,4.7-0.5,4.7-4.8V385h-9  c-4-0.1-4.5,1.1-5.2,4.9h-1.1c0.2-1.4,0.5-2.9,0.6-4.3c0.3-1.4,0.3-2.9,0.4-4.4h0.9c0.5,1.5,1.9,1.6,3.1,1.6h28.1  C255.8,382.8,257.3,382.7,257.6,381.2L257.6,381.2z" id="svg_57"/><path d="M213,382.5c-2.5,0-5-0.2-7.5-0.2h-0.3v2.1h1.5c1.6,0.1,4.4,0.6,4.5,4.9v19.8l-23.7-26.7c-1.8-0.1-3.4,0.1-5,0.1  c-2,0-4.1-0.2-6.2-0.2H176v2.1h0.9c2.3,0,4.7,1.7,4.7,4.6v22.7c-0.1,4.3-1.1,6.6-4.6,6.6h-1v2.1h0.2c2.5,0,4.9-0.2,7.4-0.2  c2.3,0,4.6,0.2,7,0.2h0.3v-2.1h-1.2c-4.1-0.1-4.7-1.3-4.8-6v-21.6l27.4,30.5l2.2,0.1h0.3l-0.1-0.2c-0.2-1.6-0.3-3.5-0.3-5.4v-24.5  c0.1-6.4,2.4-6.6,4.6-6.6h1v-2.1h-0.3C217.4,382.3,215.2,382.5,213,382.5L213,382.5z" id="svg_58"/><path d="M219.7,384.2h-0.8c-2.2,0-4.8,0.4-4.8,6.9v24.5c0,1.9,0.1,3.8,0.3,5.5h-2.1l-27.8-31v22.2c0,4.7,1,6.3,5.1,6.3h0.9v1.6  c-2.4,0-4.6-0.2-6.9-0.2c-2.5,0-4.9,0.2-7.4,0.2v-1.6h0.7c3.7,0,4.9-2.5,4.9-6.8V389c0-3-2.5-4.8-4.9-4.8h-0.7v-1.6  c2,0,4.1,0.2,6.2,0.2c1.6,0,3.2-0.2,4.8-0.2l24,27l0.1-0.1v-20.2c0-4.4-3.1-5.1-4.7-5.1h-1.2v-1.6c2.5,0,5.1,0.2,7.5,0.2  c2.2,0,4.4-0.2,6.7-0.2L219.7,384.2L219.7,384.2z" id="svg_59"/><path style="fill:#004A97;" d="M386.9,212.2V86.8c25.2,9.7,43.1,34.1,43.1,62.7C429.9,178.1,412.1,202.5,386.9,212.2L386.9,212.2z   M362.6,265.4H417c63.3,0.3,121-51.6,121-114.8c0-69-57.7-116.7-121-116.6h-54.4c-64-0.1-116.7,47.7-116.7,116.7  C245.9,213.9,298.5,265.7,362.6,265.4L362.6,265.4z M362.9,43.6c58.5,0,105.9,47.4,105.9,105.9s-47.4,106-105.9,106  S257,208,257,149.5C256.9,91,304.3,43.6,362.9,43.6L362.9,43.6z M295.7,149.5c0.1-28.6,17.9-53,43.1-62.7v125.4  C313.6,202.5,295.8,178.1,295.7,149.5L295.7,149.5z" id="svg_60"/><g id="svg_61">
	<path d="M588.7,418.4c-1.7,0-2.7-0.6-3.3-2c-0.7-1.6-1.4-3.6-2-5.5l-9.9-28.2c-0.1-0.5-0.3-1-0.5-1.4c-0.2-0.2-0.5-0.3-0.6-0.3   c-0.2,0-0.4,0.1-0.5,0.1c-1,0.6-3.2,1.7-4.9,2.3c-0.4,2.1-1.4,4.9-2.1,6.8l-8.6,24.8c-0.8,2.2-2.5,3.3-4.4,3.3h-0.6v2.1h0.3   c1.9-0.1,3.9-0.2,5.8-0.2c2.2,0,4.4,0.1,6.5,0.2h0.3v-2.1h-0.8c-1.8,0-3.8-0.3-3.8-1.7c0-0.8,0.6-2.3,1.2-4.1l1.7-5.5h11.9l2.1,6.1   c0.6,1.7,1.1,3.2,1,3.8c0,1-1.8,1.3-3.1,1.3h-0.8v2.1l0.2-0.1c2.8-0.1,5.5-0.2,8.1-0.2s5.1,0.2,7.4,0.2l0.2,0.1v-2.1h-0.8V418.4z    M563,403.9l5-15.3h0.2l4.9,15.3H563z" id="svg_62"/>
</g></g></svg>